%TF.GenerationSoftware,KiCad,Pcbnew,10.0.3*%
%TF.CreationDate,2026-06-20T15:18:00-04:00*%
%TF.ProjectId,prescript pcb,70726573-6372-4697-9074-207063622e6b,rev?*%
%TF.SameCoordinates,Original*%
%TF.FileFunction,Legend,Bot*%
%TF.FilePolarity,Positive*%
%FSLAX46Y46*%
G04 Gerber Fmt 4.6, Leading zero omitted, Abs format (unit mm)*
G04 Created by KiCad (PCBNEW 10.0.3) date 2026-06-20 15:18:00*
%MOMM*%
%LPD*%
G01*
G04 APERTURE LIST*
%ADD10C,0.100000*%
%ADD11C,0.120000*%
%ADD12C,0.250000*%
G04 APERTURE END LIST*
D10*
X132221780Y-86221429D02*
X131412257Y-86221429D01*
X131412257Y-86221429D02*
X131317019Y-86173810D01*
X131317019Y-86173810D02*
X131269400Y-86126191D01*
X131269400Y-86126191D02*
X131221780Y-86030953D01*
X131221780Y-86030953D02*
X131221780Y-85840477D01*
X131221780Y-85840477D02*
X131269400Y-85745239D01*
X131269400Y-85745239D02*
X131317019Y-85697620D01*
X131317019Y-85697620D02*
X131412257Y-85650001D01*
X131412257Y-85650001D02*
X132221780Y-85650001D01*
X131221780Y-84650001D02*
X131221780Y-85221429D01*
X131221780Y-84935715D02*
X132221780Y-84935715D01*
X132221780Y-84935715D02*
X132078923Y-85030953D01*
X132078923Y-85030953D02*
X131983685Y-85126191D01*
X131983685Y-85126191D02*
X131936066Y-85221429D01*
%TO.C,U1*%
X69996992Y-73830499D02*
G75*
G02*
X70996590Y-72830517I1000008J-26D01*
G01*
X129778798Y-72806920D02*
G75*
G02*
X130779205Y-73806921I402J-1000005D01*
G01*
X127658602Y-76443542D02*
G75*
G02*
X127658602Y-74493842I2J974850D01*
G01*
X71266201Y-75921051D02*
G75*
G02*
X73366199Y-75921051I1049999J6D01*
G01*
X127658602Y-74493843D02*
G75*
G02*
X127658602Y-76443541I1J-974849D01*
G01*
X73366201Y-76621049D02*
G75*
G02*
X71266199Y-76621049I-1050001J4D01*
G01*
X71149000Y-94019049D02*
G75*
G02*
X73243834Y-93915020I1050000J-2D01*
G01*
X73243833Y-93915020D02*
G75*
G02*
X73249000Y-94019129I-1046606J-104126D01*
G01*
X122666638Y-94296930D02*
G75*
G02*
X120666638Y-94296930I-1000000J7D01*
G01*
X122466638Y-94296930D02*
G75*
G02*
X120866638Y-94296930I-800000J7D01*
G01*
X121916638Y-94296930D02*
G75*
G02*
X121416638Y-94296930I-250000J7D01*
G01*
X121416638Y-94296930D02*
G75*
G02*
X121916638Y-94296930I250000J7D01*
G01*
X120866638Y-94296930D02*
G75*
G02*
X122466638Y-94296930I800000J7D01*
G01*
X120666638Y-94296930D02*
G75*
G02*
X122666638Y-94296930I1000000J7D01*
G01*
X127655003Y-96421223D02*
G75*
G02*
X127655003Y-94538875I0J941174D01*
G01*
X71154166Y-94823084D02*
G75*
G02*
X71149000Y-94719029I1045113J104042D01*
G01*
X73249000Y-94719049D02*
G75*
G02*
X71154166Y-94823084I-1050000J-2D01*
G01*
X127655003Y-94538875D02*
G75*
G02*
X127655003Y-96421223I0J-941174D01*
G01*
X70996796Y-98299399D02*
G75*
G02*
X69996992Y-97299379I272J1000076D01*
G01*
X130779200Y-97312129D02*
G75*
G02*
X129773685Y-98312121I-1000009J2D01*
G01*
D11*
X92670399Y-72789050D02*
X92670399Y-75449050D01*
X123270399Y-72789050D02*
X123279200Y-75449050D01*
D10*
X129778798Y-72806920D02*
X70996590Y-72830500D01*
X76659200Y-72859525D02*
X76659200Y-98259525D01*
X69996992Y-73830499D02*
X69996992Y-97299379D01*
X70641201Y-74171051D02*
X70641201Y-78371051D01*
X73991201Y-74171051D02*
X70641201Y-74171051D01*
X82181700Y-74211929D02*
X82181700Y-96906929D01*
X92670399Y-74211929D02*
X82181700Y-74211929D01*
X124901700Y-74211929D02*
X123279200Y-74209525D01*
D11*
X123279200Y-75449050D02*
X92670399Y-75449050D01*
D10*
X71266201Y-75921051D02*
X71266201Y-76621049D01*
X73366202Y-75921051D02*
X73366201Y-75921051D01*
X73366201Y-76621049D02*
X73366201Y-75921051D01*
X70641201Y-78371051D02*
X73991201Y-78371051D01*
X73991201Y-78371051D02*
X73991201Y-74171051D01*
X68796992Y-80946652D02*
X68796992Y-82246652D01*
X76296992Y-80946652D02*
X68796992Y-80946652D01*
X76296992Y-81820051D02*
X76296992Y-89023252D01*
X77173999Y-81820051D02*
X76296992Y-81820051D01*
X71363797Y-81957452D02*
X71113797Y-82207452D01*
X74270801Y-81957452D02*
X71363797Y-81957452D01*
X71113797Y-82207452D02*
X71120047Y-83007453D01*
X68796992Y-82246652D02*
X68796992Y-88596652D01*
X76296992Y-82246652D02*
X76296992Y-80946652D01*
X71120047Y-83007453D02*
X71158331Y-87907451D01*
X74270801Y-83007453D02*
X74270801Y-81957452D01*
X75463799Y-83007453D02*
X74270801Y-83007453D01*
X75463799Y-83407453D02*
X75463799Y-83007453D01*
X70313804Y-84487455D02*
X70313804Y-85757452D01*
X71131611Y-84487455D02*
X70313804Y-84487455D01*
X70313804Y-85187453D02*
X71137080Y-85187453D01*
X71137080Y-85187453D02*
X71131611Y-84487455D01*
X70313801Y-85757452D02*
X70313801Y-86457451D01*
X71141533Y-85757452D02*
X70313801Y-85757452D01*
X70313801Y-86457451D02*
X71147002Y-86457451D01*
X71147002Y-86457451D02*
X71141533Y-85757452D01*
X75463799Y-87507451D02*
X75463799Y-83407453D01*
X71158331Y-87907451D02*
X71163800Y-88607454D01*
X74270801Y-87907451D02*
X75463799Y-87907451D01*
X75463799Y-87907451D02*
X75463799Y-87507451D01*
X68796992Y-88596652D02*
X68796992Y-89896652D01*
X76296992Y-88596652D02*
X76296992Y-82246652D01*
X71163800Y-88607454D02*
X71513802Y-88957451D01*
X74270801Y-88957448D02*
X74270801Y-87907451D01*
X71513802Y-88957451D02*
X74270801Y-88957448D01*
X76296992Y-89023252D02*
X77173999Y-89023252D01*
X77173999Y-89023252D02*
X77173999Y-81820051D01*
X68796992Y-89896652D02*
X76296992Y-89896652D01*
X76296992Y-89896652D02*
X76296992Y-88596652D01*
X70219809Y-90885344D02*
X70219809Y-97207175D01*
X74918809Y-90885344D02*
X70219809Y-90885344D01*
X74918809Y-92256728D02*
X74918809Y-92959927D01*
X75874408Y-92256728D02*
X74918809Y-92256728D01*
X70524000Y-92269052D02*
X70524000Y-96469052D01*
X73874000Y-92269052D02*
X70524000Y-92269052D01*
X74918809Y-92959927D02*
X75874408Y-92959927D01*
X75874408Y-92959927D02*
X75874408Y-92256728D01*
X74918809Y-93256726D02*
X74918809Y-93959925D01*
X75874408Y-93256726D02*
X74918809Y-93256726D01*
X74918809Y-93959925D02*
X75874408Y-93959925D01*
X75874408Y-93959925D02*
X75874408Y-93256726D01*
X71149000Y-94019049D02*
X71149000Y-94719029D01*
X74918809Y-94256724D02*
X74918809Y-94959923D01*
X75874408Y-94256724D02*
X74918809Y-94256724D01*
X73249000Y-94719049D02*
X73249000Y-94019129D01*
X74918809Y-94959923D02*
X75874408Y-94959923D01*
X75874408Y-94959923D02*
X75874408Y-94256724D01*
X74918809Y-95256722D02*
X74918809Y-95959921D01*
X75874408Y-95256722D02*
X74918809Y-95256722D01*
X82609398Y-95477052D02*
X78009402Y-95477054D01*
X78009402Y-95477054D02*
X78009403Y-97777054D01*
D11*
X92670000Y-95649050D02*
X92670000Y-98309050D01*
X120670000Y-95649050D02*
X92670000Y-95649050D01*
X120670000Y-95649050D02*
X120670000Y-98309050D01*
X121940000Y-95649050D02*
X123270000Y-95649050D01*
X123270000Y-95649050D02*
X123270000Y-96979050D01*
D10*
X74918809Y-95959921D02*
X75874408Y-95959921D01*
X75874408Y-95959921D02*
X75874408Y-95256722D01*
X70524000Y-96469052D02*
X73874000Y-96469052D01*
X73874000Y-96469052D02*
X73874000Y-92269052D01*
X82181700Y-96906929D02*
X92670000Y-96906929D01*
X124901700Y-96906929D02*
X124901700Y-74211929D01*
X124901700Y-96906929D02*
X123279200Y-96906929D01*
X70219809Y-97207175D02*
X74918809Y-97207175D01*
X74918809Y-97207175D02*
X74918809Y-90885344D01*
X130779200Y-97312129D02*
X130779200Y-73806921D01*
X82609399Y-97777052D02*
X82609398Y-95477052D01*
X82609399Y-97777052D02*
X78009403Y-97777054D01*
X79384401Y-97777053D02*
X79384401Y-98897053D01*
X81234401Y-97777053D02*
X79384401Y-97777053D01*
X81234401Y-97777053D02*
X81234401Y-98309429D01*
X70996796Y-98299399D02*
X129784267Y-98312123D01*
D12*
X79384401Y-98301214D02*
X79384401Y-98309429D01*
D10*
X126529200Y-98309525D02*
X126529200Y-72809525D01*
X79384401Y-98897053D02*
X81234401Y-98897053D01*
X81234401Y-98897053D02*
X81234401Y-97777053D01*
%TD*%
M02*
