%TF.GenerationSoftware,KiCad,Pcbnew,10.0.3*%
%TF.CreationDate,2026-06-20T15:18:00-04:00*%
%TF.ProjectId,prescript pcb,70726573-6372-4697-9074-207063622e6b,rev?*%
%TF.SameCoordinates,Original*%
%TF.FileFunction,Copper,L1,Top*%
%TF.FilePolarity,Positive*%
%FSLAX46Y46*%
G04 Gerber Fmt 4.6, Leading zero omitted, Abs format (unit mm)*
G04 Created by KiCad (PCBNEW 10.0.3) date 2026-06-20 15:18:00*
%MOMM*%
%LPD*%
G01*
G04 APERTURE LIST*
%TA.AperFunction,ComponentPad*%
%ADD10C,2.000000*%
%TD*%
%TA.AperFunction,ComponentPad*%
%ADD11O,1.700000X1.700000*%
%TD*%
%TA.AperFunction,ComponentPad*%
%ADD12C,1.700000*%
%TD*%
%TA.AperFunction,ComponentPad*%
%ADD13R,1.700000X1.700000*%
%TD*%
%TA.AperFunction,Conductor*%
%ADD14C,0.200000*%
%TD*%
G04 APERTURE END LIST*
D10*
%TO.P,PWR,1,1_1*%
%TO.N,Net-(SW5-Pad1)*%
X167350000Y-100250000D03*
%TO.P,PWR,2,2_2*%
%TO.N,Net-(U1-GND)_1*%
X173000000Y-100250000D03*
%TD*%
D11*
%TO.P,U1,NC,NC_NC*%
%TO.N,unconnected-(U1-PadNC)_4*%
X101620399Y-74119050D03*
%TO.N,unconnected-(U1-PadNC)*%
X99080000Y-96979050D03*
%TO.N,unconnected-(U1-PadNC)_3*%
X101620000Y-96979050D03*
%TO.P,U1,G,GND_G*%
%TO.N,Net-(U1-GND)_1*%
X96540399Y-74119050D03*
X99080399Y-74119050D03*
X119400399Y-74119050D03*
D12*
X121940399Y-74119050D03*
D11*
X96540000Y-96979050D03*
%TO.P,U1,44,44_44*%
%TO.N,Net-(SW2-Pad1)*%
X114320399Y-74119050D03*
%TO.P,U1,43,43_43*%
%TO.N,Net-(SW1-Pad1)*%
X116860399Y-74119050D03*
%TO.P,U1,21,21_21*%
%TO.N,unconnected-(U1-Pad21)*%
X106700399Y-74119050D03*
%TO.P,U1,18,18_18*%
%TO.N,Net-(SW3-Pad1)*%
X111780399Y-74119050D03*
%TO.P,U1,17,17_17*%
%TO.N,Net-(SW4-Pad1)*%
X109240399Y-74119050D03*
%TO.P,U1,16,16_16*%
%TO.N,unconnected-(U1-Pad16)*%
X104160399Y-74119050D03*
%TO.P,U1,13,13_13*%
%TO.N,unconnected-(U1-Pad13)*%
X104160000Y-96979050D03*
%TO.P,U1,12,12_12*%
%TO.N,unconnected-(U1-Pad12)*%
X106700000Y-96979050D03*
%TO.P,U1,11,11_11*%
%TO.N,unconnected-(U1-Pad11)*%
X109240000Y-96979050D03*
%TO.P,U1,10,10_10*%
%TO.N,unconnected-(U1-Pad10)*%
X111780000Y-96979050D03*
%TO.P,U1,5V,5V_5V*%
%TO.N,unconnected-(U1-Pad5V)*%
X94000000Y-96979050D03*
%TO.P,U1,3V,3V_3V*%
%TO.N,unconnected-(U1-Pad3V)*%
X94000399Y-74119050D03*
D13*
X121940000Y-96979050D03*
D11*
%TO.P,U1,3,3_3*%
%TO.N,unconnected-(U1-Pad3)*%
X114320000Y-96979050D03*
%TO.P,U1,2,2_2*%
%TO.N,unconnected-(U1-Pad2)*%
X116860000Y-96979050D03*
%TO.P,U1,1,1_1*%
%TO.N,Net-(SW5-Pad1)*%
X119400000Y-96979050D03*
%TD*%
D10*
%TO.P,DOWN,1,1_1*%
%TO.N,Net-(SW4-Pad1)*%
X147374856Y-95750000D03*
%TO.P,DOWN,2,2_2*%
%TO.N,Net-(U1-GND)_1*%
X153024856Y-95750000D03*
%TD*%
%TO.P,ACCEPT,1,1_1*%
%TO.N,Net-(SW2-Pad1)*%
X157500000Y-85493669D03*
%TO.P,ACCEPT,2,2_2*%
%TO.N,Net-(U1-GND)_1*%
X163150000Y-85493669D03*
%TD*%
%TO.P,BACK,2,2_2*%
%TO.N,Net-(U1-GND)_1*%
X142500000Y-85493669D03*
%TO.P,BACK,1,1_1*%
%TO.N,Net-(SW3-Pad1)*%
X136850000Y-85493669D03*
%TD*%
%TO.P,UP,1,1_1*%
%TO.N,Net-(SW1-Pad1)*%
X147374856Y-75270872D03*
%TO.P,UP,2,2_2*%
%TO.N,Net-(U1-GND)_1*%
X153024856Y-75270872D03*
%TD*%
%TO.N,Net-(U1-GND)_1*%
D14*
X150143759Y-93137428D02*
X155637428Y-93137428D01*
X142500000Y-85493669D02*
X150143759Y-93137428D01*
X155637428Y-93137428D02*
X156524856Y-92250000D01*
X164500000Y-92250000D02*
X169625000Y-87125000D01*
X173000000Y-90500000D02*
X169625000Y-87125000D01*
X156524856Y-92250000D02*
X164500000Y-92250000D01*
X153024856Y-95750000D02*
X155637428Y-93137428D01*
X169625000Y-87125000D02*
X160000000Y-77500000D01*
X173000000Y-100250000D02*
X173000000Y-90500000D01*
X160000000Y-77500000D02*
X160000000Y-82343669D01*
X155769050Y-73269050D02*
X160000000Y-77500000D01*
X160000000Y-82343669D02*
X163150000Y-85493669D01*
X151023034Y-73269050D02*
X155769050Y-73269050D01*
%TO.N,Net-(SW2-Pad1)*%
X156200000Y-84193669D02*
X124395018Y-84193669D01*
X157500000Y-85493669D02*
X156200000Y-84193669D01*
X124395018Y-84193669D02*
X114320399Y-74119050D01*
%TO.N,Net-(SW5-Pad1)*%
X167350000Y-100250000D02*
X122670950Y-100250000D01*
X122670950Y-100250000D02*
X119400000Y-96979050D01*
%TO.N,Net-(U1-GND)_1*%
X153024856Y-75368525D02*
X153024856Y-75270872D01*
X153024856Y-75270872D02*
X151023034Y-73269050D01*
X151023034Y-73269050D02*
X122790399Y-73269050D01*
X122790399Y-73269050D02*
X121940399Y-74119050D01*
X163150000Y-85624856D02*
X163150000Y-85493669D01*
X152756331Y-95750000D02*
X153024856Y-95750000D01*
%TO.N,Net-(SW3-Pad1)*%
X123155018Y-85493669D02*
X111780399Y-74119050D01*
%TO.N,Net-(SW4-Pad1)*%
X130871349Y-95750000D02*
X109240399Y-74119050D01*
%TO.N,Net-(SW3-Pad1)*%
X136850000Y-85493669D02*
X123155018Y-85493669D01*
%TO.N,Net-(SW4-Pad1)*%
X147374856Y-95750000D02*
X130871349Y-95750000D01*
%TO.N,Net-(SW1-Pad1)*%
X145895728Y-76750000D02*
X119491349Y-76750000D01*
X147374856Y-75270872D02*
X145895728Y-76750000D01*
X119491349Y-76750000D02*
X116860399Y-74119050D01*
%TD*%
M02*
