M48
; DRILL file KiCad 10.0.3 date 2026-06-20T15:18:14
; FORMAT={-:-/ absolute / metric / decimal}
; #@! TF.CreationDate,2026-06-20T15:18:14-04:00
; #@! TF.GenerationSoftware,Kicad,Pcbnew,10.0.3
; #@! TF.FileFunction,Plated,1,2,PTH
FMAT,2
METRIC
; #@! TA.AperFunction,Plated,PTH,ComponentDrill
T1C1.000
; #@! TA.AperFunction,Plated,PTH,ComponentDrill
T2C1.100
%
G90
G05
T1
X94.0Y-96.979
X94.0Y-74.119
X96.54Y-96.979
X96.54Y-74.119
X99.08Y-96.979
X99.08Y-74.119
X101.62Y-96.979
X101.62Y-74.119
X104.16Y-96.979
X104.16Y-74.119
X106.7Y-96.979
X106.7Y-74.119
X109.24Y-96.979
X109.24Y-74.119
X111.78Y-96.979
X111.78Y-74.119
X114.32Y-96.979
X114.32Y-74.119
X116.86Y-96.979
X116.86Y-74.119
X119.4Y-96.979
X119.4Y-74.119
X121.94Y-96.979
X121.94Y-74.119
T2
X136.85Y-85.494
X142.5Y-85.494
X147.375Y-75.271
X147.375Y-95.75
X153.025Y-75.271
X153.025Y-95.75
X157.5Y-85.494
X163.15Y-85.494
X167.35Y-100.25
X173.0Y-100.25
M30
